<?xml version="1.0" standalone="no"?>
<!DOCTYPE svg PUBLIC "-//W3C//DTD SVG 20010904//EN"
 "http://www.w3.org/TR/2001/REC-SVG-20010904/DTD/svg10.dtd">
<svg version="1.0" xmlns="http://www.w3.org/2000/svg"
 width="486.000000pt" height="466.000000pt" viewBox="0 0 486.000000 466.000000"
 preserveAspectRatio="xMidYMid meet">
<metadata>
Created by potrace 1.16, written by Peter Selinger 2001-2019
</metadata>
<g transform="translate(0.000000,466.000000) scale(0.100000,-0.100000)"
fill="#000000" stroke="none">
<path d="M904 3833 c-5 -142 -9 -582 -9 -978 l0 -720 31 -71 c85 -195 298
-453 750 -909 163 -164 218 -237 294 -383 71 -138 151 -190 324 -212 105 -13
266 1 349 29 81 28 129 70 183 159 113 186 163 251 329 422 411 424 636 698
711 868 47 105 49 143 47 997 -1 440 -6 858 -10 929 l-8 128 -420 -445 -420
-446 -650 0 -650 1 -375 399 c-206 219 -396 420 -421 445 l-47 46 -8 -259z
m2823 -1225 c-4 -235 -10 -412 -17 -440 -31 -128 -213 -358 -631 -798 -251
-265 -286 -307 -384 -470 -67 -112 -87 -130 -162 -143 l-33 -7 0 210 0 210 41
0 c55 0 99 42 99 95 0 27 -8 44 -29 66 l-29 29 -177 0 c-193 0 -212 -5 -235
-60 -26 -63 25 -130 100 -130 l30 0 0 -210 0 -209 -32 5 c-64 12 -91 37 -141
129 -87 160 -147 234 -397 490 -365 374 -533 574 -608 724 l-37 75 -3 413 -3
413 1327 0 1327 0 -6 -392z"/>
<path d="M1488 2240 c-27 -38 -48 -74 -48 -79 0 -14 470 -342 480 -336 12 7
100 134 100 144 0 9 -447 327 -471 335 -9 3 -31 -20 -61 -64z"/>
<path d="M3031 2146 c-128 -90 -235 -167 -238 -170 -6 -6 83 -142 99 -152 5
-4 412 274 486 331 4 4 -102 155 -108 155 -3 0 -111 -74 -239 -164z"/>
</g>
</svg>
